<svg width="26" height="26" viewBox="0 0 26 26" fill="none" xmlns="http://www.w3.org/2000/svg">
<g opacity="0.5">
<circle cx="13" cy="13" r="11.7619" fill="white" stroke="#E6E6E6" stroke-width="2.47619"/>
<g clip-path="url(#clip0_1569_16846)">
<path d="M13.306 20.962C12.3634 20.962 11.4511 20.6926 10.6187 20.1633C7.78023 18.3385 6.86788 14.6641 6.94789 12.0712C6.97424 11.0021 7.40943 10.0576 8.20566 9.34704C10.0928 7.66419 13.3509 7.75625 14.3042 7.82433L14.3608 7.82912C16.7232 8.06021 18.2229 8.70458 19.0874 9.85908C19.9051 10.9513 20.0983 12.4577 19.6788 14.4665C19.4299 15.7495 19.0904 16.6902 18.5088 17.6989C17.6599 19.2341 16.1855 20.4001 14.5726 20.8028C14.1471 20.9093 13.7227 20.962 13.305 20.962H13.306ZM13.4329 9.63374C12.0297 9.63374 10.3631 9.90799 9.4644 10.7087C9.04482 11.0826 8.83406 11.5448 8.81942 12.1201C8.75404 14.2431 9.45367 17.2137 11.6404 18.6204C12.3888 19.097 13.2436 19.2351 14.111 19.0193C15.2263 18.7403 16.2587 17.9137 16.8705 16.8062C17.3574 15.9595 17.6277 15.2077 17.8404 14.1089C18.1497 12.6274 18.0639 11.5985 17.5779 10.9503C17.0569 10.2551 15.9464 9.83319 14.1832 9.66155L14.1598 9.65963C13.9305 9.64333 13.6856 9.6347 13.4329 9.6347V9.63374Z" fill="#E6E6E6"/>
<path d="M13.306 20.9623C12.3634 20.9623 11.4511 20.6928 10.6187 20.1635C7.78023 18.3388 6.86788 14.6643 6.94789 12.0715C7.0123 9.43458 9.48977 7.79297 13.4114 7.79297H13.4192C13.9364 7.79297 14.3559 8.20529 14.355 8.7135C14.355 9.22171 13.9354 9.63307 13.4182 9.63307H13.4133C12.6454 9.63307 8.87699 9.75485 8.81844 12.1204C8.75307 14.2434 9.45269 17.214 11.6394 18.6207C12.3878 19.0973 13.2426 19.2353 14.11 19.0196C15.2253 18.7406 16.2577 17.914 16.8695 16.8065C17.1164 16.3596 17.6853 16.1947 18.139 16.4373C18.5937 16.6799 18.7615 17.2389 18.5147 17.6858C17.6579 19.2353 16.1836 20.4004 14.5716 20.8031C14.1461 20.9096 13.7217 20.9623 13.3041 20.9623H13.306Z" fill="#AFAFAF"/>
<path d="M13.4152 13.641C10.8645 13.641 8.38803 13.2402 6.05399 12.4501C5.56513 12.2842 5.30557 11.7607 5.47341 11.2802C5.64221 10.7998 6.17401 10.5438 6.66384 10.7097C8.80078 11.4337 11.0724 11.8009 13.4142 11.8009C15.7561 11.8009 18.0277 11.4337 20.1656 10.7097C20.6544 10.5438 21.1872 10.7998 21.356 11.2802C21.5248 11.7607 21.2643 12.2842 20.7754 12.4501C18.4414 13.2402 15.9649 13.641 13.4142 13.641H13.4152Z" fill="#AFAFAF"/>
<path d="M13.4202 9.63676C13.3899 9.63676 13.3597 9.6358 13.3294 9.63292C12.8142 9.58402 12.4376 9.1343 12.4873 8.62801C12.74 6.04669 15.0702 5.39081 15.1687 5.36396C15.6664 5.22972 16.1826 5.51834 16.3192 6.00833C16.4548 6.49545 16.166 6.99886 15.6722 7.13694C15.5425 7.1753 14.4759 7.53104 14.3501 8.8054C14.3032 9.28101 13.8954 9.63676 13.4192 9.63771L13.4202 9.63676Z" fill="#E6E6E6"/>
</g>
</g>
<defs>
<clipPath id="clip0_1569_16846">
<rect x="5.42261" y="5.33105" width="15.986" height="15.6308" rx="6.39441" fill="white"/>
</clipPath>
</defs>
</svg>
