<svg width="14" height="14" viewBox="0 0 14 14" fill="none" xmlns="http://www.w3.org/2000/svg">
<path d="M2.33008 6.66797C2.32581 7.1028 2.37623 7.58157 2.4834 8.10645C2.66273 9.0518 2.90813 9.7459 3.32715 10.4893C3.93914 11.6208 5.00249 12.4804 6.16504 12.7773C6.47144 12.8557 6.77734 12.8945 7.07813 12.8945L7.33203 12.8857C7.92103 12.8423 8.48987 12.6468 9.01465 12.3057C10.9459 11.0359 11.6397 8.55118 11.6631 6.66895C10.1713 6.94959 8.60606 7.09175 7 7.0918C5.39155 7.0918 3.82386 6.94939 2.33008 6.66797ZM10.7549 4.33203C9.39453 3.09175 7.04583 3.1588 6.3584 3.20898L6.31738 3.21289C4.61483 3.38324 3.53343 3.85822 2.91016 4.70899C2.6817 5.02111 2.52247 5.38026 2.42871 5.78809C3.88326 6.08328 5.41922 6.23633 7 6.23633C8.58947 6.23632 10.1337 6.08262 11.5947 5.78418C11.4736 5.22487 11.1893 4.72862 10.7549 4.33203ZM6.19629 3.1875L7.58399 3.1875L7.58399 0.644532L6.19629 0.644532L6.19629 3.1875Z" fill="#AFAFAF"/>
</svg>
