<svg width="200" height="200" viewBox="0 0 200 200" fill="none" xmlns="http://www.w3.org/2000/svg">
<g clip-path="url(#clip0_805_18863)">
<path d="M100.577 160.406C92.563 160.406 84.8062 158.116 77.7297 153.615C53.5966 138.101 45.8399 106.861 46.5201 84.8167C46.7441 75.7268 50.4441 67.6966 57.2137 61.6556C73.2582 47.348 100.959 48.1307 109.064 48.7095L109.545 48.7502C129.63 50.715 142.381 56.1934 149.731 66.009C156.683 75.2947 158.326 88.1022 154.758 105.182C152.643 116.09 149.756 124.087 144.811 132.664C137.594 145.716 125.058 155.629 111.345 159.053C107.728 159.958 104.119 160.406 100.569 160.406H100.577ZM101.655 64.0932C89.7258 64.0932 75.5562 66.4248 67.9155 73.2321C64.3483 76.4116 62.5563 80.341 62.4319 85.2325C61.876 103.282 67.8243 128.538 86.4157 140.498C92.7787 144.55 100.046 145.724 107.421 143.89C116.904 141.517 125.681 134.49 130.882 125.074C135.022 117.875 137.32 111.483 139.129 102.141C141.758 89.5452 141.028 80.7976 136.897 75.2865C132.467 69.376 123.026 65.7889 108.035 64.3296L107.836 64.3133C105.886 64.1747 103.804 64.1013 101.655 64.1013V64.0932Z" fill="#F5A7A7"/>
<path d="M100.577 160.406C92.563 160.406 84.8062 158.116 77.7297 153.615C53.5966 138.101 45.8399 106.861 46.5201 84.8167C47.0677 62.3974 68.1312 48.4404 101.473 48.4404H101.539C105.936 48.4404 109.503 51.946 109.495 56.2668C109.495 60.5876 105.928 64.085 101.531 64.085H101.49C94.9606 64.085 62.9213 65.1204 62.4236 85.2325C61.8678 103.282 67.816 128.538 86.4074 140.498C92.7704 144.55 100.038 145.724 107.413 143.889C116.895 141.517 125.672 134.49 130.874 125.074C132.973 121.275 137.809 119.872 141.667 121.935C145.533 123.997 146.96 128.75 144.861 132.549C137.577 145.724 125.042 155.629 111.337 159.053C107.72 159.958 104.111 160.406 100.56 160.406H100.577Z" fill="#B2A4FF"/>
<path d="M101.506 98.1623C79.8202 98.1623 58.7649 94.7545 38.9209 88.0369C34.7646 86.6265 32.5578 82.1753 33.9847 78.0909C35.42 74.0065 39.9413 71.8298 44.1059 73.2402C62.2742 79.3953 81.5873 82.5177 101.498 82.5177C121.408 82.5177 140.721 79.3953 158.898 73.2402C163.054 71.8298 167.584 74.0065 169.019 78.0909C170.454 82.1753 168.239 86.6265 164.083 88.0369C144.239 94.7545 123.183 98.1623 101.498 98.1623H101.506Z" fill="#B2A4FF"/>
<path d="M101.548 64.1174C101.29 64.1174 101.033 64.1093 100.776 64.0848C96.3958 63.669 93.1935 59.8455 93.6166 55.541C95.7653 33.5946 115.576 28.0183 116.414 27.79C120.645 26.6487 125.034 29.1026 126.195 33.2685C127.348 37.41 124.893 41.69 120.695 42.864C119.591 43.1901 110.524 46.2146 109.454 57.0492C109.056 61.0929 105.588 64.1174 101.539 64.1256L101.548 64.1174Z" fill="#F5A7A7"/>
</g>
<defs>
<clipPath id="clip0_805_18863">
<rect x="33.5537" y="27.5127" width="135.914" height="132.893" rx="54.3654" fill="white"/>
</clipPath>
</defs>
</svg>
