<svg width="24" height="24" viewBox="0 0 24 24" fill="none" xmlns="http://www.w3.org/2000/svg">
<path fill-rule="evenodd" clip-rule="evenodd" d="M14.0438 4.3361C14.8246 3.55417 16.0904 3.55321 16.8712 4.33396L19.3641 6.82689C20.1382 7.60098 20.1458 8.85462 19.3811 9.63918L17.7219 11.3415L12.3814 6.00105L14.0438 4.3361ZM11.3212 7.06292L16.6745 12.4162L10.1493 19.1111C9.58438 19.6907 8.80965 20.0176 8.0009 20.0175L5.24826 20.0174C4.39587 20.0174 3.7155 19.3072 3.75135 18.4548L3.86953 15.6454C3.90114 14.8937 4.21367 14.1812 4.74522 13.6488L11.3212 7.06292ZM13.6436 19.9444C13.6436 20.3588 13.9792 20.6947 14.3933 20.6947H20.515C20.929 20.6947 21.2647 20.3588 21.2647 19.9444C21.2647 19.5301 20.929 19.1941 20.515 19.1941H14.3933C13.9792 19.1941 13.6436 19.5301 13.6436 19.9444Z" fill="#F9F9F9"/>
</svg>
