<svg width="36" height="36" viewBox="0 0 36 36" fill="none" xmlns="http://www.w3.org/2000/svg">
<path d="M7.6084 12.0005C8.71493 10.0839 10.3299 8.51064 12.2748 7.45465C14.2197 6.39867 16.4187 5.90108 18.6287 6.01691C20.8388 6.13273 22.9737 6.85745 24.7976 8.11095C26.6214 9.36444 28.0631 11.0979 28.9632 13.1196" stroke="#F5A7A7" stroke-width="2.25" stroke-linecap="round"/>
<path d="M4.84853 8.2734L5.94265 13.0127C6.129 13.8199 6.93443 14.3232 7.74162 14.1368L12.4809 13.0427" stroke="#F5A7A7" stroke-width="2.25" stroke-linecap="round"/>
<path d="M28.3916 24.0003C27.2851 25.9168 25.6701 27.4901 23.7252 28.5461C21.7803 29.6021 19.5813 30.0996 17.3713 29.9838C15.1612 29.868 13.0263 29.1433 11.2024 27.8898C9.37858 26.6363 7.93689 24.9028 7.03675 22.8811" stroke="#F5A7A7" stroke-width="2.25" stroke-linecap="round"/>
<path d="M31.1515 27.7273L30.0573 22.988C29.871 22.1808 29.0656 21.6775 28.2584 21.8639L23.5191 22.958" stroke="#F5A7A7" stroke-width="2.25" stroke-linecap="round"/>
</svg>
