<svg width="24" height="24" viewBox="0 0 24 24" fill="none" xmlns="http://www.w3.org/2000/svg">
<path fill-rule="evenodd" clip-rule="evenodd" d="M13.7204 5.14649C13.4302 5.00528 12.8075 4.8653 12.0122 4.87498C11.1692 4.88657 10.3365 5.07319 9.66851 5.62378M13.7204 5.14649C14.47 5.51379 15.5625 6.23592 15.5625 7.68756C15.5625 9.28395 14.6384 10.0004 13.0462 11.0954C12.1825 11.6893 11.5753 12.3223 11.1925 13.0338C10.8063 13.7517 10.6875 14.4774 10.6875 15.1876C10.6875 15.7053 11.1072 16.1251 11.625 16.1251C12.1428 16.1251 12.5625 15.7053 12.5625 15.1876C12.5625 14.6958 12.6425 14.2963 12.8437 13.9221C13.0484 13.5416 13.4174 13.1157 14.1086 12.6403L14.1446 12.6156C15.6545 11.5774 17.4375 10.3515 17.4375 7.68756C17.4375 5.07101 15.3986 3.88064 14.5443 3.46218L14.5427 3.46143C13.8942 3.14529 12.9482 2.98835 11.9885 3.00013L11.9872 3.00015C10.9076 3.01489 9.59462 3.25487 8.47592 4.17694C7.57571 4.91898 7.09685 5.76166 6.84501 6.42735C6.71958 6.75888 6.65014 7.04696 6.61164 7.25906C6.59236 7.36532 6.5807 7.45325 6.57368 7.51894C6.57016 7.55181 6.56779 7.5792 6.5662 7.60062C6.56541 7.61134 6.56481 7.62057 6.56436 7.62827C6.56413 7.63212 6.56395 7.63558 6.56379 7.63865L6.56358 7.64297L6.56349 7.6449C6.56347 7.64534 6.56341 7.64669 7.50002 7.68756L6.56341 7.64669C6.54084 8.16396 6.94187 8.6016 7.45915 8.62417C7.97311 8.6466 8.40846 8.25081 8.43614 7.73833C8.43635 7.73567 8.43691 7.72893 8.43804 7.7184C8.44058 7.69465 8.44595 7.65204 8.4565 7.5939C8.47769 7.4772 8.51917 7.30104 8.5987 7.09082C8.75677 6.67299 9.06405 6.12204 9.66851 5.62378" fill="#AFAFAF"/>
<path d="M11.625 20.2495C12.4534 20.2495 13.125 19.5779 13.125 18.7495C13.125 17.9211 12.4534 17.2495 11.625 17.2495C10.7966 17.2495 10.125 17.9211 10.125 18.7495C10.125 19.5779 10.7966 20.2495 11.625 20.2495Z" fill="#AFAFAF"/>
</svg>
