<svg width="40" height="40" viewBox="0 0 40 40" fill="none" xmlns="http://www.w3.org/2000/svg">
<rect x="1" y="1" width="38" height="38" rx="19" fill="white"/>
<rect x="1" y="1" width="38" height="38" rx="19" stroke="#E0DBFF" stroke-width="2"/>
<path d="M26.7453 11.75C26.7453 11.75 26.7453 10.4431 26.7453 9.5L13.25 9.5V11.75H9.5V13.5312C9.5 15.0312 9.94531 16.4745 10.7544 17.5911C11.3792 18.4536 12.3561 19.0489 13.2345 19.3353C13.4895 20.7083 14.1814 22.0133 15.5872 23.0773C16.6184 23.8583 17.8583 24.4306 18.9688 24.6645V28.4375H15.5V30.5H24.5V28.4375H21.0312V24.6645C22.1417 24.4302 23.3811 23.8583 24.4128 23.0773C25.8191 22.0133 26.5105 20.7083 26.7655 19.3353C27.6439 19.0489 28.6208 18.4536 29.2456 17.5911C30.0547 16.4745 30.5 15.0312 30.5 13.5312V11.75L26.7453 11.75ZM12.425 16.3813C11.9244 15.6931 11.6202 14.7688 11.57 13.8125H13.25V16.9705C13.0653 16.917 12.6444 16.6836 12.425 16.3813ZM27.575 16.3813C27.3594 16.6911 27.0312 16.9709 26.75 16.9709C26.75 15.9209 26.75 14.8011 26.7477 13.8125H28.4305C28.3798 14.7688 28.0625 15.6828 27.575 16.3813Z" fill="#F5A7A7"/>
</svg>
