<svg width="14" height="14" viewBox="0 0 14 14" fill="none" xmlns="http://www.w3.org/2000/svg">
<path d="M4.41724 2.49597C2.44269 2.29852 0.728761 3.84947 0.728761 5.83386L0.728761 9.33289C0.728762 11.867 4.04068 12.828 5.39673 10.6874C6.02898 9.68909 7.47397 9.65585 8.15161 10.6239L8.31763 10.8602C9.84431 13.0411 13.2708 11.9609 13.2708 9.29871L13.2708 5.83386C13.2708 3.84961 11.5576 2.29879 9.58325 2.49597L7.30493 2.72351C7.10239 2.74377 6.8981 2.74375 6.69556 2.72351L4.41724 2.49597ZM9.33325 5.08972C9.57482 5.08972 9.77066 5.28568 9.77075 5.52722L9.77075 6.25672L10.4993 6.25672C10.7409 6.25672 10.9368 6.45259 10.9368 6.69422C10.9367 6.93577 10.7408 7.13172 10.4993 7.13172L9.77075 7.13172L9.77075 7.86023C9.77075 8.10186 9.57488 8.29773 9.33325 8.29773C9.09163 8.29773 8.89575 8.10186 8.89575 7.86023L8.89575 7.13172L8.16626 7.13172C7.92484 7.13154 7.72884 6.93566 7.72876 6.69422C7.72876 6.4527 7.92479 6.25689 8.16626 6.25672L8.89575 6.25672L8.89575 5.52722C8.89585 5.28568 9.09169 5.08972 9.33325 5.08972ZM4.66626 6.98621C4.98843 6.98621 5.25025 7.24705 5.25025 7.56922C5.25016 7.89131 4.98838 8.15222 4.66626 8.15222C4.3443 8.15205 4.08334 7.8912 4.08325 7.56922C4.08325 7.24716 4.34424 6.98638 4.66626 6.98621ZM3.50025 5.23621C3.82226 5.23638 4.08325 5.49716 4.08325 5.81922C4.08317 6.1412 3.82221 6.40205 3.50025 6.40222C3.17813 6.40222 2.91634 6.14131 2.91626 5.81922C2.91626 5.49705 3.17808 5.23621 3.50025 5.23621Z" fill="#AFAFAF"/>
</svg>
