<svg width="40" height="40" viewBox="0 0 40 40" fill="none" xmlns="http://www.w3.org/2000/svg">
<path d="M8.4528 13.3333C9.68228 11.2038 11.4767 9.45572 13.6377 8.28241C15.7987 7.10909 18.242 6.55622 20.6976 6.68491C23.1532 6.8136 25.5254 7.61885 27.5519 9.01162C29.5784 10.4044 31.1803 12.3304 32.1804 14.5768" stroke="white" stroke-width="2.5" stroke-linecap="round"/>
<path d="M5.38595 9.19215L6.60164 14.458C6.8087 15.3549 7.70362 15.9141 8.6005 15.7071L13.8664 14.4914" stroke="white" stroke-width="2.5" stroke-linecap="round"/>
<path d="M31.5472 26.6662C30.3177 28.7957 28.5233 30.5438 26.3623 31.7171C24.2013 32.8904 21.758 33.4433 19.3024 33.3146C16.8468 33.1859 14.4746 32.3807 12.4481 30.9879C10.4216 29.5951 8.81974 27.6691 7.81959 25.4227" stroke="white" stroke-width="2.5" stroke-linecap="round"/>
<path d="M34.614 30.8074L33.3984 25.5415C33.1913 24.6446 32.2964 24.0854 31.3995 24.2924L26.1336 25.5081" stroke="white" stroke-width="2.5" stroke-linecap="round"/>
</svg>
