<svg width="44" height="37" viewBox="0 0 44 37" fill="none" xmlns="http://www.w3.org/2000/svg">
<path d="M42.4074 5.02175L16.5612 35.791C16.2777 36.1287 15.9249 36.4015 15.5268 36.5909C15.1286 36.7804 14.6944 36.8821 14.2535 36.8891H14.2016C13.7703 36.8889 13.3439 36.7981 12.95 36.6225C12.5561 36.4469 12.2035 36.1905 11.9151 35.8698L0.838155 23.5621C0.556841 23.2638 0.338005 22.9122 0.194514 22.528C0.0510226 22.1439 -0.0142292 21.7349 0.002589 21.3252C0.0194072 20.9154 0.117957 20.5132 0.292449 20.1421C0.466941 19.771 0.713856 19.4385 1.01868 19.1642C1.3235 18.8899 1.68008 18.6793 2.06746 18.5447C2.45484 18.4102 2.8652 18.3545 3.27443 18.3808C3.68367 18.4071 4.08351 18.515 4.45046 18.698C4.81741 18.8811 5.14407 19.1356 5.41123 19.4467L14.1208 29.1237L37.6958 1.06406C38.2247 0.452672 38.9728 0.0739394 39.7786 0.00972946C40.5844 -0.0544804 41.3831 0.200988 42.0021 0.720915C42.621 1.24084 43.0105 1.98346 43.0864 2.78825C43.1622 3.59304 42.9183 4.39534 42.4074 5.02175Z" fill="white"/>
</svg>
