<svg width="14" height="14" viewBox="0 0 14 14" fill="none" xmlns="http://www.w3.org/2000/svg">
<path fill-rule="evenodd" clip-rule="evenodd" d="M11.5205 4.08333C11.5205 2.55304 10.28 1.3125 8.74968 1.3125L5.24967 1.3125C3.71939 1.3125 2.47884 2.55305 2.47884 4.08333L2.47884 11.7649C2.47884 12.5725 3.37232 13.0603 4.0517 12.6236L6.60537 10.9819C6.84557 10.8275 7.15379 10.8275 7.39398 10.9819L9.94765 12.6236C10.627 13.0603 11.5205 12.5725 11.5205 11.7649L11.5205 4.08333ZM8.74968 4.52083C8.9913 4.52083 9.18718 4.71671 9.18718 4.95833C9.18718 5.19996 8.9913 5.39583 8.74968 5.39583L5.24968 5.39583C5.00805 5.39583 4.81218 5.19996 4.81218 4.95833C4.81218 4.71671 5.00805 4.52083 5.24968 4.52083L8.74968 4.52083Z" fill="#AFAFAF"/>
</svg>
