<svg width="39" height="38" viewBox="0 0 39 38" fill="none" xmlns="http://www.w3.org/2000/svg">
<rect x="0.5" y="0.5" width="38" height="37" rx="18.5" fill="white"/>
<rect x="0.5" y="0.5" width="38" height="37" rx="18.5" stroke="#E6E6E6"/>
<path d="M19.6802 17.3636V20.8491H24.5238C24.3111 21.97 23.6729 22.9191 22.7156 23.5573L25.6365 25.8237C27.3383 24.2528 28.3202 21.9455 28.3202 19.2046C28.3202 18.5665 28.2629 17.9528 28.1565 17.3637L19.6802 17.3636Z" fill="#4285F4"/>
<path d="M14.6366 20.713L13.9779 21.2173L11.646 23.0336C13.1269 25.9708 16.1622 28 19.6803 28C22.1103 28 24.1475 27.1981 25.6367 25.8236L22.7157 23.5573C21.9139 24.0973 20.8912 24.4246 19.6803 24.4246C17.3403 24.4246 15.3522 22.8455 14.6403 20.7182L14.6366 20.713Z" fill="#34A853"/>
<path d="M11.6456 14.9664C11.032 16.1773 10.6802 17.5437 10.6802 19C10.6802 20.4563 11.032 21.8227 11.6456 23.0336C11.6456 23.0417 14.6402 20.7099 14.6402 20.7099C14.4602 20.1699 14.3538 19.5972 14.3538 18.9999C14.3538 18.4026 14.4602 17.8299 14.6402 17.2899L11.6456 14.9664Z" fill="#FBBC05"/>
<path d="M19.6805 13.5836C21.006 13.5836 22.1842 14.0418 23.1251 14.9254L25.7023 12.3482C24.1396 10.8919 22.1105 10 19.6805 10C16.1623 10 13.1269 12.0209 11.646 14.9663L14.6405 17.29C15.3523 15.1627 17.3405 13.5836 19.6805 13.5836Z" fill="#EA4335"/>
</svg>
