<svg width="20" height="20" viewBox="0 0 20 20" fill="none" xmlns="http://www.w3.org/2000/svg">
<path d="M10 1.66699C11.8408 1.66699 13.3328 3.1592 13.333 5V9.375H7.5C7.15493 9.375 6.87518 9.65497 6.875 10C6.875 10.3452 7.15482 10.625 7.5 10.625H13.333V15C13.333 16.8409 11.8409 18.334 10 18.334H5.83301C3.99221 18.3338 2.5 16.8408 2.5 15V5C2.50018 3.15931 3.99232 1.66717 5.83301 1.66699H10ZM15.3916 7.05762C15.6356 6.81414 16.0314 6.81403 16.2754 7.05762L18.1855 8.96875C18.755 9.53821 18.7549 10.4617 18.1855 11.0312L16.2754 12.9424C16.0314 13.1862 15.6357 13.1861 15.3916 12.9424C15.1477 12.6983 15.1476 12.3016 15.3916 12.0576L16.8242 10.625H13.333V9.375H16.8242L15.3916 7.94238C15.1477 7.69829 15.1476 7.30164 15.3916 7.05762Z" fill="#FF8383"/>
</svg>
