<svg width="40" height="40" viewBox="0 0 40 40" fill="none" xmlns="http://www.w3.org/2000/svg">
<circle cx="20" cy="20" r="18.0952" fill="white" stroke="#E6E6E6" stroke-width="3.80952"/>
<g clip-path="url(#clip0_1162_16684)">
<path d="M20.009 31.7878C18.5589 31.7878 17.1553 31.3733 15.8748 30.559C11.5078 27.7517 10.1042 22.0987 10.2273 18.1097C10.2679 16.4648 10.9374 15.0118 12.1623 13.9186C15.0656 11.3296 20.0781 11.4713 21.5447 11.576L21.6318 11.5834C25.2662 11.9389 27.5735 12.9302 28.9035 14.7064C30.1615 16.3867 30.4588 18.7042 29.8133 21.7948C29.4305 23.7686 28.9081 25.2158 28.0133 26.7677C26.7073 29.1295 24.439 30.9234 21.9576 31.5429C21.3031 31.7067 20.65 31.7878 20.0075 31.7878H20.009ZM20.2042 14.3597C18.0455 14.3597 15.4815 14.7816 14.0989 16.0134C13.4534 16.5888 13.1291 17.2998 13.1066 18.1849C13.006 21.451 14.0824 26.0212 17.4465 28.1854C18.5979 28.9185 19.913 29.131 21.2475 28.7991C22.9634 28.3698 24.5516 27.0981 25.4929 25.3943C26.242 24.0917 26.6578 22.9351 26.985 21.2445C27.4609 18.9653 27.3288 17.3824 26.5812 16.3852C25.7796 15.3157 24.0712 14.6666 21.3586 14.4025L21.3226 14.3995C20.9698 14.3745 20.593 14.3612 20.2042 14.3612V14.3597Z" fill="#E6E6E6"/>
<path d="M20.009 31.7878C18.5589 31.7878 17.1553 31.3733 15.8748 30.559C11.5078 27.7517 10.1042 22.0987 10.2273 18.1097C10.3264 14.0529 14.1379 11.5273 20.1712 11.5273H20.1832C20.9788 11.5273 21.6243 12.1617 21.6228 12.9435C21.6228 13.7254 20.9773 14.3583 20.1817 14.3583H20.1742C18.9927 14.3583 13.1952 14.5456 13.1051 18.185C13.0045 21.4511 14.0809 26.0213 17.445 28.1854C18.5964 28.9186 19.9115 29.131 21.246 28.7991C22.9619 28.3698 24.5501 27.0982 25.4914 25.3943C25.8712 24.7068 26.7463 24.4531 27.4444 24.8263C28.144 25.1996 28.4022 26.0596 28.0224 26.7471C26.7043 29.131 24.436 30.9234 21.9561 31.543C21.3016 31.7067 20.6485 31.7878 20.006 31.7878H20.009Z" fill="#AFAFAF"/>
<path d="M20.177 20.5245C16.2529 20.5245 12.4429 19.9078 8.8521 18.6923C8.10001 18.437 7.70069 17.6316 7.9589 16.8925C8.2186 16.1534 9.03675 15.7595 9.79034 16.0148C13.0779 17.1285 16.5727 17.6935 20.1755 17.6935C23.7784 17.6935 27.2731 17.1285 30.5622 16.0148C31.3143 15.7595 32.134 16.1534 32.3937 16.8925C32.6534 17.6316 32.2526 18.437 31.5005 18.6923C27.9096 19.9078 24.0996 20.5245 20.1755 20.5245H20.177Z" fill="#AFAFAF"/>
<path d="M20.1846 14.3639C20.1381 14.3639 20.0915 14.3624 20.045 14.358C19.2524 14.2828 18.6729 13.5909 18.7495 12.812C19.1383 8.84072 22.7231 7.83168 22.8747 7.79038C23.6403 7.58385 24.4344 8.02788 24.6446 8.78171C24.8533 9.53112 24.4089 10.3056 23.6493 10.518C23.4497 10.577 21.8089 11.1243 21.6152 13.0849C21.5432 13.8166 20.9157 14.3639 20.1831 14.3654L20.1846 14.3639Z" fill="#E6E6E6"/>
</g>
<defs>
<clipPath id="clip0_1162_16684">
<rect x="7.88086" y="7.74023" width="24.5939" height="24.0474" rx="9.83756" fill="white"/>
</clipPath>
</defs>
</svg>
