<svg width="66" height="66" viewBox="0 0 66 66" fill="none" xmlns="http://www.w3.org/2000/svg">
<rect width="66" height="66" rx="14" fill="white"/>
<path fill-rule="evenodd" clip-rule="evenodd" d="M16.8311 25.9163C17.4436 21.2142 21.4645 17.583 26.3336 17.583H39.6669C44.536 17.583 48.557 21.2142 49.1695 25.9163H16.8311ZM40.5003 15.083C39.8099 15.083 39.2503 15.6427 39.2503 16.333V21.333C39.2503 22.0234 39.8099 22.583 40.5003 22.583C41.1906 22.583 41.7503 22.0234 41.7503 21.333V16.333C41.7503 15.6427 41.1906 15.083 40.5003 15.083ZM25.5003 15.083C24.8099 15.083 24.2503 15.6427 24.2503 16.333V21.333C24.2503 22.0234 24.8099 22.583 25.5003 22.583C26.1906 22.583 26.7503 22.0234 26.7503 21.333V16.333C26.7503 15.6427 26.1906 15.083 25.5003 15.083Z" fill="#B2A4FF"/>
<path opacity="0.3" d="M49.25 40.4995C49.25 45.7921 44.9596 50.0833 39.667 50.0835H26.333C21.0404 50.0833 16.75 45.7921 16.75 40.4995V28.4165H49.25V40.4995ZM23.833 39.2495C23.1429 39.2497 22.5832 39.8094 22.583 40.4995C22.583 41.1898 23.1428 41.7493 23.833 41.7495H25.5C26.1904 41.7495 26.75 41.1899 26.75 40.4995C26.7498 39.8093 26.1902 39.2495 25.5 39.2495H23.833ZM32.167 39.2495C31.4767 39.2495 30.9172 39.8093 30.917 40.4995C30.917 41.1899 31.4766 41.7495 32.167 41.7495H33.833C34.5234 41.7495 35.083 41.1899 35.083 40.4995C35.0828 39.8093 34.5233 39.2495 33.833 39.2495H32.167ZM40.5 39.2495C39.8098 39.2495 39.2502 39.8093 39.25 40.4995C39.25 41.1899 39.8096 41.7495 40.5 41.7495H42.167C42.8572 41.7493 43.417 41.1898 43.417 40.4995C43.4168 39.8094 42.8571 39.2497 42.167 39.2495H40.5ZM23.833 32.5835C23.1428 32.5837 22.583 33.1432 22.583 33.8335C22.5832 34.5236 23.1429 35.0833 23.833 35.0835H25.5C26.1902 35.0835 26.7498 34.5237 26.75 33.8335C26.75 33.1431 26.1904 32.5835 25.5 32.5835H23.833ZM32.167 32.5835C31.4766 32.5835 30.917 33.1431 30.917 33.8335C30.9172 34.5237 31.4767 35.0835 32.167 35.0835H33.833C34.5233 35.0835 35.0828 34.5237 35.083 33.8335C35.083 33.1431 34.5234 32.5835 33.833 32.5835H32.167ZM40.5 32.5835C39.8096 32.5835 39.25 33.1431 39.25 33.8335C39.2502 34.5237 39.8098 35.0835 40.5 35.0835H42.167C42.8571 35.0833 43.4168 34.5236 43.417 33.8335C43.417 33.1432 42.8572 32.5837 42.167 32.5835H40.5Z" fill="#B2A4FF"/>
</svg>
