<svg width="170" height="170" viewBox="0 0 170 170" fill="none" xmlns="http://www.w3.org/2000/svg">
<rect width="170" height="170" rx="85" fill="url(#paint0_linear_1235_11043)"/>
<g clip-path="url(#clip0_1235_11043)">
<rect x="10" y="10" width="150" height="150" rx="75" fill="#6F63B2"/>
<g clip-path="url(#clip1_1235_11043)">
<path d="M54.167 161.236C56.7482 163.33 60.5794 162.934 62.6773 160.361L80.046 136.485C81.7254 134.426 81.2151 131.218 79.1524 129.547C77.0869 127.873 73.8335 128.031 72.1541 130.09L53.2868 152.753C51.1863 155.326 51.5832 159.145 54.1643 161.236H54.167Z" fill="#B2A4FF"/>
<path d="M115.85 161.236C113.269 163.33 109.438 162.934 107.34 160.361L89.9711 136.485C88.2918 134.426 88.8021 131.218 90.8648 129.547C92.9303 127.873 96.1837 128.031 97.8631 130.09L116.73 152.753C118.831 155.326 118.434 159.145 115.853 161.236H115.85Z" fill="#B2A4FF"/>
<path d="M74.3897 187.312C77.7106 187.53 80.6049 185 80.8236 181.69L81.1341 162.351C81.3096 159.705 79.0336 157.38 76.3768 157.205C73.7228 157.03 71.1605 159.038 70.985 161.683L68.7495 180.896C68.5308 184.206 71.0687 187.091 74.3897 187.309V187.312Z" fill="#B2A4FF"/>
<path d="M95.8111 187.312C92.4902 187.53 89.5958 185 89.3771 181.69L89.0666 162.351C88.8912 159.705 91.1672 157.38 93.824 157.205C96.478 157.03 99.0403 159.038 99.2158 161.683L101.451 180.896C101.67 184.206 99.1321 187.091 95.8111 187.309V187.312Z" fill="#E0DBFF"/>
<mask id="mask0_1235_11043" style="mask-type:luminance" maskUnits="userSpaceOnUse" x="51" y="128" width="31" height="35">
<path d="M54.167 161.236C56.7482 163.33 60.5794 162.934 62.6773 160.361L80.046 136.485C81.7254 134.426 81.2151 131.218 79.1524 129.547C77.0869 127.873 73.8335 128.031 72.1541 130.09L53.2868 152.753C51.1863 155.326 51.5832 159.145 54.1643 161.236H54.167Z" fill="white"/>
</mask>
<g mask="url(#mask0_1235_11043)">
<path d="M45.6459 151.174L53.473 152.754L62.8608 160.362L63.2874 165.413L59.1456 167.028L43.6074 152.616L45.6459 151.174Z" fill="white"/>
</g>
<mask id="mask1_1235_11043" style="mask-type:luminance" maskUnits="userSpaceOnUse" x="88" y="128" width="31" height="35">
<path d="M115.85 161.236C113.269 163.33 109.438 162.934 107.34 160.361L89.9711 136.485C88.2918 134.426 88.8021 131.218 90.8648 129.547C92.9303 127.873 96.1837 128.031 97.8631 130.09L116.73 152.753C118.831 155.326 118.434 159.145 115.853 161.236H115.85Z" fill="white"/>
</mask>
<g mask="url(#mask1_1235_11043)">
<path d="M124.552 151.174L116.728 152.754L107.337 160.362L106.914 165.413L111.053 167.028L126.594 152.616L124.552 151.174Z" fill="white"/>
</g>
<path d="M95.8111 187.312C92.4902 187.53 89.5958 185 89.3771 181.69L89.0666 162.351C88.8912 159.705 91.1672 157.38 93.824 157.205C96.478 157.03 99.0403 159.038 99.2158 161.683L101.451 180.896C101.67 184.206 99.1321 187.091 95.8111 187.309V187.312Z" fill="#B2A4FF"/>
<path d="M104.564 153.854C104.564 164.568 95.8487 173.255 85.1002 173.255C74.3517 173.255 65.6362 164.568 65.6362 153.854C65.6362 143.14 71.0658 122.095 85.1002 122.095C99.8797 122.095 104.564 143.138 104.564 153.854Z" fill="#B2A4FF"/>
<path d="M97.4605 154.015C97.4605 160.819 91.9256 166.336 85.1001 166.336C78.2746 166.336 72.7397 160.819 72.7397 154.015C72.7397 147.212 76.1876 136.011 85.1001 136.011C94.4851 136.011 97.4605 147.212 97.4605 154.015Z" fill="white"/>
<path d="M135.741 92.6387C135.741 92.4691 135.749 92.3023 135.749 92.13C135.749 65.527 109.932 42.9609 85.0516 42.9609C60.1716 42.9609 34.0955 65.527 34.0955 92.13C34.0955 92.4099 34.1009 92.6844 34.1063 92.9616C32.1974 96.6648 31.1201 100.863 31.1201 105.312C31.1201 120.262 43.2807 132.383 58.2789 132.383C67.2158 132.211 76.0689 130.583 85.0084 130.453C93.948 130.588 102.798 132.213 111.735 132.383C126.733 132.383 138.894 120.262 138.894 105.312C138.894 100.731 137.752 96.4199 135.738 92.6387H135.741Z" fill="#B2A4FF"/>
<mask id="mask2_1235_11043" style="mask-type:luminance" maskUnits="userSpaceOnUse" x="31" y="42" width="108" height="91">
<path d="M135.741 92.6387C135.741 92.4691 135.749 92.3023 135.749 92.13C135.749 65.527 109.932 42.9609 85.0516 42.9609C60.1716 42.9609 34.0955 65.527 34.0955 92.13C34.0955 92.4099 34.1009 92.6844 34.1063 92.9616C32.1974 96.6648 31.1201 100.863 31.1201 105.312C31.1201 120.262 43.2807 132.383 58.2789 132.383C67.2158 132.211 76.0689 130.583 85.0084 130.453C93.948 130.588 102.798 132.213 111.735 132.383C126.733 132.383 138.894 120.262 138.894 105.312C138.894 100.731 137.752 96.4199 135.738 92.6387H135.741Z" fill="white"/>
</mask>
<g mask="url(#mask2_1235_11043)">
<path d="M142.663 121.055V103.277C128.883 108.011 114.063 111.203 98.5432 112.562C95.0819 109.357 90.4488 107.392 85.354 107.392C80 107.392 75.1536 109.556 71.6436 113.054C53.5269 112.139 36.2689 108.732 20.3904 103.274L17.3584 106.014L27.6398 133.319C27.6398 133.319 47.6411 134.06 67.753 134.81C70.8255 141.439 77.5484 146.038 85.354 146.038C92.6384 146.038 98.9806 142.031 102.291 136.11C105.917 136.25 116.833 143.444 117.122 143.463C116.034 143.299 142.66 121.053 142.66 121.053L142.663 121.055Z" fill="white"/>
</g>
<path d="M63.139 109.486C69.8208 109.486 75.2375 104.087 75.2375 97.4267C75.2375 90.7664 69.8208 85.3672 63.139 85.3672C56.4572 85.3672 51.0405 90.7664 51.0405 97.4267C51.0405 104.087 56.4572 109.486 63.139 109.486Z" fill="white"/>
<path d="M63.1388 105.519C67.6226 105.519 71.2575 101.896 71.2575 97.4266C71.2575 92.9572 67.6226 89.334 63.1388 89.334C58.6549 89.334 55.02 92.9572 55.02 97.4266C55.02 101.896 58.6549 105.519 63.1388 105.519Z" fill="#6F63B2"/>
<path d="M63.1387 96.8074C64.5106 96.8074 65.6227 95.6988 65.6227 94.3314C65.6227 92.964 64.5106 91.8555 63.1387 91.8555C61.7669 91.8555 60.6548 92.964 60.6548 94.3314C60.6548 95.6988 61.7669 96.8074 63.1387 96.8074Z" fill="white"/>
<path d="M106.878 109.486C113.56 109.486 118.976 104.087 118.976 97.4267C118.976 90.7664 113.56 85.3672 106.878 85.3672C100.196 85.3672 94.7793 90.7664 94.7793 97.4267C94.7793 104.087 100.196 109.486 106.878 109.486Z" fill="white"/>
<path d="M106.878 105.519C111.362 105.519 114.997 101.896 114.997 97.4266C114.997 92.9572 111.362 89.334 106.878 89.334C102.394 89.334 98.7593 92.9572 98.7593 97.4266C98.7593 101.896 102.394 105.519 106.878 105.519Z" fill="#6F63B2"/>
<path d="M106.878 96.8074C108.25 96.8074 109.362 95.6988 109.362 94.3314C109.362 92.964 108.25 91.8555 106.878 91.8555C105.506 91.8555 104.394 92.964 104.394 94.3314C104.394 95.6988 105.506 96.8074 106.878 96.8074Z" fill="white"/>
<path d="M63.139 103.449C63.8846 103.449 64.489 102.847 64.489 102.103C64.489 101.36 63.8846 100.758 63.139 100.758C62.3935 100.758 61.7891 101.36 61.7891 102.103C61.7891 102.847 62.3935 103.449 63.139 103.449Z" fill="#F5A7A7"/>
<path d="M106.878 103.449C107.624 103.449 108.228 102.847 108.228 102.103C108.228 101.36 107.624 100.758 106.878 100.758C106.133 100.758 105.528 101.36 105.528 102.103C105.528 102.847 106.133 103.449 106.878 103.449Z" fill="#F5A7A7"/>
<path d="M87.4331 108.781C87.4331 110.116 86.3477 110.563 85.0085 110.563C83.6694 110.563 82.584 110.116 82.584 108.781C82.584 107.446 83.6694 106.364 85.0085 106.364C86.3477 106.364 87.4331 107.446 87.4331 108.781Z" fill="#6F63B2"/>
<path d="M81.096 117.699C80.3265 117.699 79.6002 117.576 78.9145 117.331C76.633 116.513 75.7285 114.599 75.6907 114.518C75.4261 113.945 75.6772 113.264 76.255 113C76.8301 112.737 77.5132 112.987 77.7778 113.56C77.9425 113.897 79.5651 116.865 84.5114 114.497C84.8246 114.346 85.1918 114.346 85.505 114.497C90.4486 116.868 92.074 113.897 92.2441 113.549C92.5195 112.984 93.2026 112.742 93.7696 113.009C94.3393 113.278 94.5877 113.945 94.3231 114.516C94.2853 114.596 93.3808 116.507 91.0993 117.328C89.3363 117.96 87.287 117.777 85.0055 116.784C83.6097 117.393 82.3029 117.697 81.0933 117.697L81.096 117.699Z" fill="#6F63B2"/>
<path d="M57.9117 55.2896C58.4463 52.846 57.0747 50.8356 56.3458 48.4297C55.9165 47.1029 55.6951 45.7007 55.5628 44.3309C55.4062 42.7888 55.3009 41.3894 54.7339 40.2456C53.3029 37.4225 49.5311 36.3244 46.4882 36.6474C39.3361 37.2879 36.7198 46.3574 39.9327 52.0763C41.28 54.5765 43.5912 56.498 46.2128 57.623C49.9874 59.2404 56.4862 60.0074 57.9036 55.3193L57.909 55.2923L57.9117 55.2896Z" fill="#B2A4FF"/>
<path d="M112.105 56.5006C111.57 54.0569 112.942 52.0466 113.671 49.6406C114.1 48.3138 114.322 46.9117 114.454 45.5418C114.611 43.9997 114.716 42.6003 115.283 41.4565C116.714 38.6334 120.486 37.5354 123.529 37.8583C130.681 38.4988 133.297 47.5683 130.084 53.2872C128.737 55.7874 126.426 57.709 123.804 58.8339C120.029 60.4513 113.531 61.2183 112.113 56.5302L112.108 56.5033L112.105 56.5006Z" fill="#B2A4FF"/>
<mask id="mask3_1235_11043" style="mask-type:luminance" maskUnits="userSpaceOnUse" x="31" y="42" width="108" height="91">
<path d="M135.741 92.6387C135.741 92.4691 135.749 92.3023 135.749 92.13C135.749 65.527 109.932 42.9609 85.0516 42.9609C60.1716 42.9609 34.0955 65.527 34.0955 92.13C34.0955 92.4099 34.1009 92.6844 34.1063 92.9616C32.1974 96.6648 31.1201 100.863 31.1201 105.312C31.1201 120.262 43.2807 132.383 58.2789 132.383C67.2158 132.211 76.0689 130.583 85.0084 130.453C93.948 130.588 102.798 132.213 111.735 132.383C126.733 132.383 138.894 120.262 138.894 105.312C138.894 100.731 137.752 96.4199 135.738 92.6387H135.741Z" fill="white"/>
</mask>
<g mask="url(#mask3_1235_11043)">
<path d="M78.4475 42.9639H91.5666V62.4996C91.5666 66.1086 88.6263 69.0394 85.0057 69.0394C81.3851 69.0394 78.4448 66.1086 78.4448 62.4996V42.9639H78.4475Z" fill="#FFDBDB"/>
</g>
<path d="M103.131 124.797L85.4109 129.784C85.2111 129.84 84.9978 129.84 84.798 129.784L67.0782 124.797C66.36 124.595 65.6445 125.133 65.6445 125.879V138.597C65.6445 139.424 66.5058 139.967 67.2537 139.612L84.6198 131.401C84.9249 131.256 85.2813 131.256 85.5864 131.401L102.952 139.612C103.7 139.965 104.562 139.421 104.562 138.597V125.879C104.562 125.133 103.846 124.595 103.128 124.797H103.131Z" fill="#F5A7A7"/>
<mask id="mask4_1235_11043" style="mask-type:luminance" maskUnits="userSpaceOnUse" x="38" y="36" width="21" height="23">
<path d="M57.9117 55.2896C58.4463 52.846 57.0747 50.8356 56.3458 48.4297C55.9165 47.1029 55.6951 45.7007 55.5628 44.3309C55.4062 42.7888 55.3009 41.3894 54.7339 40.2456C53.3029 37.4225 49.5311 36.3244 46.4882 36.6474C39.3361 37.2879 36.7198 46.3574 39.9327 52.0763C41.28 54.5765 43.5912 56.498 46.2128 57.623C49.9874 59.2404 56.4862 60.0074 57.9036 55.3193L57.909 55.2923L57.9117 55.2896Z" fill="white"/>
</mask>
<g mask="url(#mask4_1235_11043)">
<path d="M58.0708 57.3967C57.6469 55.7927 54.8822 54.6543 53.1272 52.9723C49.9169 50.1088 47.6976 44.0427 43.1374 44.1288C36.1796 44.2607 35.3696 52.0653 37.2974 56.6378C38.6635 60.3517 42.1735 63.0322 46.1559 63.3605C49.2663 63.6834 52.5008 62.6527 55.09 61.0272C56.3104 60.3032 58.4326 58.6939 58.0789 57.4182L58.0735 57.3967H58.0708Z" fill="white"/>
</g>
<mask id="mask5_1235_11043" style="mask-type:luminance" maskUnits="userSpaceOnUse" x="111" y="37" width="21" height="24">
<path d="M112.105 56.5006C111.57 54.0569 112.942 52.0466 113.671 49.6406C114.1 48.3138 114.322 46.9117 114.454 45.5418C114.611 43.9997 114.716 42.6003 115.283 41.4565C116.714 38.6334 120.486 37.5354 123.529 37.8583C130.681 38.4988 133.297 47.5683 130.084 53.2872C128.737 55.7874 126.426 57.709 123.804 58.8339C120.029 60.4513 113.531 61.2183 112.113 56.5302L112.108 56.5033L112.105 56.5006Z" fill="white"/>
</mask>
<g mask="url(#mask5_1235_11043)">
<path d="M112.029 57.3967C112.453 55.7927 115.218 54.6543 116.973 52.9723C120.183 50.1088 122.402 44.0427 126.963 44.1288C133.92 44.2607 134.73 52.0653 132.803 56.6378C131.437 60.3517 127.927 63.0322 123.944 63.3605C120.834 63.6834 117.599 62.6527 115.01 61.0272C113.79 60.3032 111.667 58.6939 112.021 57.4182L112.027 57.3967H112.029Z" fill="white"/>
</g>
</g>
</g>
<defs>
<linearGradient id="paint0_linear_1235_11043" x1="85" y1="0" x2="85" y2="170" gradientUnits="userSpaceOnUse">
<stop stop-color="#E4DFFF"/>
<stop offset="1" stop-color="#FBDCDD"/>
</linearGradient>
<clipPath id="clip0_1235_11043">
<rect x="10" y="10" width="150" height="150" rx="75" fill="white"/>
</clipPath>
<clipPath id="clip1_1235_11043">
<rect width="112.88" height="143.502" fill="white" transform="translate(28.8306 34.3682)"/>
</clipPath>
</defs>
</svg>
