<svg width="40" height="40" viewBox="0 0 40 40" fill="none" xmlns="http://www.w3.org/2000/svg">
<circle cx="20" cy="20" r="18.0952" fill="white" stroke="#E6E6E6" stroke-width="3.80952"/>
<g clip-path="url(#clip0_805_18832)">
<path d="M20.0093 31.7878C18.5591 31.7878 17.1555 31.3733 15.875 30.559C11.5081 27.7517 10.1045 22.0987 10.2276 18.1097C10.2681 16.4648 10.9376 15.0118 12.1626 13.9186C15.0659 11.3296 20.0783 11.4713 21.545 11.576L21.6321 11.5834C25.2664 11.9389 27.5737 12.9302 28.9038 14.7064C30.1618 16.3867 30.459 18.7042 29.8135 21.7948C29.4307 23.7686 28.9083 25.2158 28.0136 26.7677C26.7076 29.1295 24.4393 30.9234 21.9578 31.5429C21.3033 31.7067 20.6503 31.7878 20.0078 31.7878H20.0093ZM20.2044 14.3597C18.0457 14.3597 15.4817 14.7816 14.0991 16.0134C13.4536 16.5888 13.1294 17.2998 13.1068 18.1849C13.0063 21.451 14.0826 26.0212 17.4468 28.1854C18.5982 28.9185 19.9132 29.131 21.2478 28.7991C22.9636 28.3698 24.5519 27.0981 25.4931 25.3943C26.2422 24.0917 26.658 22.9351 26.9853 21.2445C27.4612 18.9653 27.3291 17.3824 26.5815 16.3852C25.7798 15.3157 24.0715 14.6666 21.3588 14.4025L21.3228 14.3995C20.97 14.3745 20.5932 14.3612 20.2044 14.3612V14.3597Z" fill="#E6E6E6"/>
<path d="M20.0093 31.7878C18.5591 31.7878 17.1555 31.3733 15.875 30.559C11.5081 27.7517 10.1045 22.0987 10.2276 18.1097C10.3266 14.0529 14.1382 11.5273 20.1714 11.5273H20.1834C20.979 11.5273 21.6246 12.1617 21.6231 12.9435C21.6231 13.7254 20.9775 14.3583 20.1819 14.3583H20.1744C18.993 14.3583 13.1954 14.5456 13.1053 18.185C13.0048 21.4511 14.0811 26.0213 17.4453 28.1854C18.5967 28.9186 19.9117 29.131 21.2463 28.7991C22.9621 28.3698 24.5504 27.0982 25.4916 25.3943C25.8714 24.7068 26.7466 24.4531 27.4446 24.8263C28.1442 25.1996 28.4024 26.0596 28.0226 26.7471C26.7046 29.131 24.4363 30.9234 21.9563 31.543C21.3018 31.7067 20.6488 31.7878 20.0063 31.7878H20.0093Z" fill="#AFAFAF"/>
<path d="M20.1775 20.5245C16.2534 20.5245 12.4434 19.9078 8.85259 18.6923C8.1005 18.437 7.70118 17.6316 7.95939 16.8925C8.21909 16.1534 9.03724 15.7595 9.79083 16.0148C13.0784 17.1285 16.5732 17.6935 20.176 17.6935C23.7789 17.6935 27.2736 17.1285 30.5627 16.0148C31.3148 15.7595 32.1344 16.1534 32.3942 16.8925C32.6539 17.6316 32.253 18.437 31.5009 18.6923C27.9101 19.9078 24.1001 20.5245 20.176 20.5245H20.1775Z" fill="#AFAFAF"/>
<path d="M20.1851 14.3639C20.1386 14.3639 20.092 14.3624 20.0455 14.358C19.2529 14.2828 18.6734 13.5909 18.75 12.812C19.1388 8.84072 22.7236 7.83168 22.8752 7.79038C23.6408 7.58385 24.4349 8.02788 24.6451 8.78171C24.8538 9.53112 24.4094 10.3056 23.6498 10.518C23.4502 10.577 21.8094 11.1243 21.6157 13.0849C21.5437 13.8166 20.9162 14.3639 20.1836 14.3654L20.1851 14.3639Z" fill="#E6E6E6"/>
</g>
<defs>
<clipPath id="clip0_805_18832">
<rect x="7.88135" y="7.74023" width="24.5939" height="24.0474" rx="9.83756" fill="white"/>
</clipPath>
</defs>
</svg>
