<svg width="40" height="40" viewBox="0 0 40 40" fill="none" xmlns="http://www.w3.org/2000/svg">
<rect x="1" y="1" width="38" height="38" rx="19" fill="white"/>
<rect x="1" y="1" width="38" height="38" rx="19" stroke="#E0DBFF" stroke-width="2"/>
<path fill-rule="evenodd" clip-rule="evenodd" d="M14.2197 14.2197C14.5126 13.9268 14.9874 13.9268 15.2803 14.2197L25.7803 24.7197C26.0732 25.0126 26.0732 25.4874 25.7803 25.7803C25.4874 26.0732 25.0126 26.0732 24.7197 25.7803L14.2197 15.2803C13.9268 14.9874 13.9268 14.5126 14.2197 14.2197Z" fill="#B2A4FF"/>
<path fill-rule="evenodd" clip-rule="evenodd" d="M25.7803 14.2197C26.0732 14.5126 26.0732 14.9874 25.7803 15.2803L15.2803 25.7803C14.9874 26.0732 14.5126 26.0732 14.2197 25.7803C13.9268 25.4874 13.9268 25.0126 14.2197 24.7197L24.7197 14.2197C25.0126 13.9268 25.4874 13.9268 25.7803 14.2197Z" fill="#B2A4FF"/>
</svg>
