<svg width="50" height="50" viewBox="0 0 50 50" fill="none" xmlns="http://www.w3.org/2000/svg">
<path d="M39.4333 16.6665C37.8964 14.0046 35.6534 11.8195 32.9522 10.3529C30.2509 8.88624 27.1967 8.19515 24.1272 8.35602C21.0577 8.51688 18.0925 9.52344 15.5594 11.2644C13.0263 13.0054 11.0239 15.4129 9.77375 18.2209" stroke="white" stroke-width="3.125" stroke-linecap="round"/>
<path d="M43.2666 11.4898L41.747 18.0721C41.4882 19.1932 40.3695 19.8923 39.2484 19.6334L32.666 18.1138" stroke="white" stroke-width="3.125" stroke-linecap="round"/>
<path d="M10.5658 33.3325C12.1026 35.9944 14.3456 38.1795 17.0469 39.6461C19.7481 41.1128 22.8023 41.8039 25.8718 41.643C28.9413 41.4821 31.9065 40.4756 34.4396 38.7346C36.9727 36.9937 38.9751 34.5861 40.2253 31.7781" stroke="white" stroke-width="3.125" stroke-linecap="round"/>
<path d="M6.73244 38.5093L8.25205 31.9269C8.51087 30.8058 9.62952 30.1068 10.7506 30.3656L17.333 31.8852" stroke="white" stroke-width="3.125" stroke-linecap="round"/>
</svg>
