<svg width="24" height="24" viewBox="0 0 24 24" fill="none" xmlns="http://www.w3.org/2000/svg">
<path fill-rule="evenodd" clip-rule="evenodd" d="M20.0049 11.4302C20.0122 12.1757 19.925 12.9959 19.7412 13.896C19.4337 15.5174 19.0136 16.7061 18.2949 17.981C17.2458 19.921 15.4239 21.3948 13.4307 21.9038C12.9051 22.0382 12.3802 22.104 11.8643 22.104C10.7 22.1037 9.57207 21.7638 8.54395 21.0952C5.23313 18.918 4.0436 14.6578 4.00391 11.4312C6.56195 11.9125 9.24589 12.1567 12 12.1567C14.7572 12.1567 17.4442 11.9126 20.0049 11.4302ZM5.5625 7.42627C7.89406 5.30003 11.9193 5.41543 13.0986 5.50146L13.1689 5.50732C16.0878 5.79933 17.9413 6.6142 19.0098 8.07275C19.4019 8.60837 19.6762 9.22346 19.8369 9.92334C17.3433 10.4295 14.7101 10.6899 12 10.6899C9.27445 10.6899 6.62636 10.4264 4.12109 9.91455C4.329 8.95575 4.8176 8.10613 5.5625 7.42627ZM13.377 5.46436H10.998V1.10498H13.377V5.46436Z" fill="#B2A4FF"/>
</svg>
